<svg xmlns="http://www.w3.org/2000/svg" width="24" height="24" viewBox="0 0 24 24">
<path fill="none" d="M0,0h24v24H0V0z"/>
<path d="M3.1,4h2.5v5.6h6.6V4h2.5v14h-2.5v-6.2H5.7v6.2H3.1V4z"/>
<path d="M18.5,13.6H19c0.1,0,0.3,0,0.4,0c0.1,0,0.3-0.1,0.4-0.1c0.1-0.1,0.2-0.1,0.3-0.2c0.1-0.1,0.1-0.3,0.1-0.4
	c0-0.2-0.1-0.4-0.2-0.5c-0.2-0.1-0.4-0.2-0.6-0.2c-0.2,0-0.4,0.1-0.6,0.2c-0.2,0.1-0.3,0.3-0.3,0.5l-1.6-0.3
	c0.1-0.3,0.2-0.5,0.4-0.8c0.2-0.2,0.3-0.4,0.6-0.5c0.2-0.1,0.5-0.2,0.7-0.3c0.3-0.1,0.6-0.1,0.9-0.1c0.3,0,0.6,0,0.9,0.1
	c0.3,0.1,0.5,0.2,0.8,0.4c0.2,0.2,0.4,0.4,0.5,0.6c0.1,0.3,0.2,0.6,0.2,0.9c0,0.4-0.1,0.7-0.3,1c-0.2,0.3-0.5,0.5-0.9,0.5l0,0
	c0.2,0,0.4,0.1,0.6,0.2c0.2,0.1,0.3,0.2,0.4,0.4c0.1,0.2,0.2,0.3,0.3,0.5c0.1,0.2,0.1,0.4,0.1,0.6c0,0.3-0.1,0.6-0.2,0.9
	c-0.1,0.3-0.3,0.5-0.5,0.7c-0.2,0.2-0.5,0.3-0.8,0.4c-0.3,0.1-0.7,0.1-1,0.1c-0.6,0-1.1-0.1-1.6-0.4c-0.5-0.3-0.8-0.8-0.9-1.4
	l1.6-0.4c0,0.2,0.1,0.4,0.3,0.6c0.2,0.2,0.5,0.2,0.7,0.2c0.3,0,0.5-0.1,0.7-0.2c0.2-0.2,0.3-0.4,0.2-0.7c0-0.2,0-0.3-0.1-0.5
	c-0.1-0.1-0.2-0.2-0.3-0.2c-0.1-0.1-0.3-0.1-0.5-0.1h-0.5h-0.4L18.5,13.6z"/>
</svg>
